<?xml version="1.0" standalone="no"?>
<!DOCTYPE svg PUBLIC "-//W3C//DTD SVG 20010904//EN"
 "http://www.w3.org/TR/2001/REC-SVG-20010904/DTD/svg10.dtd">
<svg version="1.0" xmlns="http://www.w3.org/2000/svg"
 width="512.000000pt" height="512.000000pt" viewBox="0 0 512.000000 512.000000"
 preserveAspectRatio="xMidYMid meet">
<metadata>
Created by potrace 1.11, written by Peter Selinger 2001-2013
</metadata>
<g transform="translate(0.000000,512.000000) scale(0.100000,-0.100000)"
fill="#000000" stroke="none">
<path d="M2340 4629 c-455 -52 -872 -246 -1203 -559 -592 -560 -804 -1388
-552 -2155 101 -308 254 -562 485 -799 176 -181 340 -302 565 -416 695 -353
1551 -273 2178 202 106 80 291 261 370 361 341 432 500 967 447 1498 -49 483
-257 918 -604 1265 -340 340 -755 543 -1226 599 -126 16 -342 17 -460 4z
m1005 -578 c93 -23 158 -50 235 -99 73 -46 160 -121 160 -138 0 -31 -24 -22
-83 30 -72 65 -181 124 -287 157 -96 30 -270 33 -370 6 -85 -22 -214 -86 -267
-131 -22 -20 -48 -36 -56 -36 -74 0 84 129 222 181 138 52 306 63 446 30z
m-40 -213 c80 -17 170 -65 236 -125 53 -50 58 -58 45 -71 -13 -13 -21 -9 -70
36 -183 167 -468 176 -672 22 -45 -34 -54 -37 -65 -24 -10 12 -7 20 22 44 40
34 147 92 204 110 90 29 190 32 300 8z m29 -231 c53 -24 136 -91 136 -108 0
-25 -34 -19 -63 9 -18 17 -59 43 -91 58 -49 22 -74 27 -140 27 -90 0 -152 -21
-218 -73 -32 -26 -37 -28 -49 -13 -12 13 -9 20 21 44 41 35 109 68 164 79 69
15 180 4 240 -23z m-124 -197 c55 -11 120 -51 120 -75 0 -24 -21 -28 -43 -7
-51 48 -120 54 -192 17 -49 -24 -65 -25 -65 0 0 22 74 67 121 74 4 1 30 -4 59
-9z m143 -278 c152 -75 239 -244 207 -405 -28 -145 -111 -240 -250 -287 -52
-18 -81 -21 -145 -18 -148 8 -267 86 -329 218 -27 57 -31 76 -31 150 0 170 79
292 232 356 50 21 71 24 154 22 84 -3 103 -7 162 -36z m-1424 -756 c9 -11 2
-36 -34 -117 -25 -57 -51 -107 -57 -110 -14 -9 -48 7 -48 21 0 5 21 57 46 115
47 107 65 125 93 91z m1281 -466 c0 -433 0 -440 -20 -440 -20 0 -20 7 -20 440
0 433 0 440 20 440 20 0 20 -7 20 -440z m-427 126 c77 -32 121 -104 122 -196
0 -79 -28 -136 -88 -177 l-40 -28 -522 -3 -521 -3 -44 24 c-64 34 -100 89
-107 164 -9 101 31 177 112 214 37 17 77 19 548 19 406 0 514 -3 540 -14z
m632 -661 c0 -20 -8 -20 -964 -23 -972 -2 -980 -2 -981 30 0 4 10 9 23 11 12
2 450 4 972 3 943 -1 950 -1 950 -21z"/>
<path d="M3031 3021 l-31 -29 0 -234 c1 -167 4 -237 13 -249 63 -82 156 -45
165 66 l4 55 57 0 c70 0 126 25 169 75 42 47 52 74 52 136 0 56 -24 110 -67
151 -49 47 -91 58 -217 58 -112 0 -114 -1 -145 -29z m254 -176 c0 -29 -2 -30
-52 -33 l-53 -3 0 36 0 36 53 -3 c50 -3 52 -4 52 -33z"/>
<path d="M1773 1951 c-61 -38 -79 -109 -43 -168 50 -83 170 -83 220 0 31 51
26 91 -18 138 -47 51 -107 62 -159 30z m111 -67 c19 -18 21 -65 4 -82 -7 -7
-28 -12 -48 -12 -44 0 -60 15 -60 55 0 17 5 36 12 43 17 17 74 15 92 -4z"/>
<path d="M2565 1950 c-34 -23 -65 -74 -65 -109 0 -35 35 -85 73 -106 79 -42
187 17 187 102 0 102 -113 167 -195 113z m113 -62 c7 -7 12 -26 12 -43 0 -41
-16 -55 -62 -55 -27 0 -40 5 -48 19 -14 28 -12 57 6 75 18 19 75 21 92 4z"/>
</g>
</svg>
